<?xml version="1.0" encoding="UTF-8"?>
<svg width="50px" height="51px" viewBox="0 0 50 51" version="1.1" xmlns="http://www.w3.org/2000/svg" xmlns:xlink="http://www.w3.org/1999/xlink">
    <!-- Generator: Sketch 44.1 (41455) - http://www.bohemiancoding.com/sketch -->
    <title>Page 1</title>
    <desc>Created with Sketch.</desc>
    <defs>
        <polygon id="path-1" points="0 50.4077093 0 0.0709276617 49.9297566 0.0709276617 49.9297566 50.4077093"></polygon>
    </defs>
    <g id="Option-B-Copy-2" stroke="none" stroke-width="1" fill="none" fill-rule="evenodd">
        <g id="Desktop" transform="translate(-10.000000, -15.000000)">
            <g id="Page-1" transform="translate(10.000000, 15.000000)">
                <g id="Group-3" transform="translate(0.000000, 0.040594)">
                    <mask id="mask-2" fill="white">
                        <use xlink:href="#path-1"></use>
                    </mask>
                    <g id="Clip-2"></g>
                    <path d="M24.9647788,48.5118441 C12.2361283,48.5118441 1.88048673,38.0718722 1.88048673,25.2393185 C1.88048673,12.4067647 12.2361283,1.96679283 24.9647788,1.96679283 C37.6935398,1.96679283 48.049292,12.4067647 48.049292,25.2393185 C48.049292,38.0718722 37.6935398,48.5118441 24.9647788,48.5118441 M42.6176549,7.44249754 C37.9023894,2.68889442 31.6331416,0.0709276617 24.9647788,0.0709276617 C18.2965265,0.0709276617 12.0272788,2.68889442 7.31190265,7.44260906 C2.59674779,12.1962122 -4.42477876e-05,18.5165806 -4.42477876e-05,25.2393185 C-4.42477876e-05,31.9621679 2.59674779,38.2825363 7.31190265,43.0361394 C12.0271681,47.7897425 18.2965265,50.4077093 24.9647788,50.4077093 C31.6332522,50.4077093 37.9025,47.7897425 42.6176549,43.0361394 C47.3329204,38.2824248 49.929823,31.9621679 49.929823,25.2393185 C49.929823,18.5165806 47.3329204,12.1962122 42.6176549,7.44249754" id="Fill-1" fill="#1D1C1B" mask="url(#mask-2)"></path>
                </g>
                <path d="M22.901792,13.4168594 L25.1909513,13.4168594 L14.4777876,24.2174918 L12.1885177,24.2174918 L22.901792,13.4168594 Z M22.4790044,18.832231 L24.4184956,18.832231 C25.2580973,18.832231 25.8375221,19.032412 26.1408407,19.4274211 C26.5970354,20.0217191 26.3979204,20.9446709 26.397146,20.9483511 C25.8533407,22.8481195 23.7489159,23.811442 20.1425,23.811442 L17.5399558,23.811442 L22.4790044,18.832231 Z M27.8023451,13.4654828 L28.9822124,13.4654828 C29.4711504,13.4654828 29.7941593,13.5800153 29.9422788,13.8058463 C30.2056637,14.2076582 30.0680531,14.985186 29.9839823,15.1990842 C29.6656195,15.7776576 28.9929425,16.9363658 26.104115,16.9363658 L24.4184956,16.9363658 L24.3595354,16.9363658 L27.8023451,13.4654828 Z M27.790177,24.2174918 L26.2521239,24.2174918 C27.2232522,23.5279544 27.8793363,22.6079022 28.2038938,21.4741749 C28.2085398,21.4581158 28.6123009,19.9975189 27.8964823,18.6812309 C30.1735841,18.2621332 31.1157301,17.0515675 31.6407301,16.0964975 C31.834646,15.743532 32.1731416,14.5247138 31.8201549,13.4168594 L38.5033407,13.4168594 L27.790177,24.2174918 Z M40.7733628,11.5209942 L22.1203761,11.5209942 L8.97823009,24.7660659 L8.97823009,38.8817858 L10.8587611,38.8817858 L10.8587611,26.1133569 L27.2257965,26.1133569 L27.2257965,38.8818973 L29.1063274,38.8818973 L29.1063274,25.5718086 L38.8953761,15.7029382 L38.8953761,26.1725748 L40.7759071,26.1725748 L40.7733628,11.5209942 Z" id="Fill-4" fill="#1D1C1B"></path>
            </g>
        </g>
    </g>
</svg>